# xmcd
#
# Track frame offsets: 
#        150
#        15483
#        28597
#        41828
#        55627
#        68568
#        81896
#        94436
#        107315
#        119924
#        131726
#        144801
#        158274
#
# Disc length: 2303 seconds
#
# Revision: 2
# Processed by: cddbd v1.5.2PL0 Copyright (c) Steve Scherf et al.
# Submitted via: ExactAudioCopy v1.0b3
#
DISCID=a008fd0d
DTITLE=Mississippi John Hurt - The Ultimate Jazz Archive - Blues [CD 3
DTITLE=)
DYEAR=2005
DGENRE=Blues
TTITLE0=Frankie
TTITLE1=Nobody's Dirty Business
TTITLE2=Ain't No Tellin'
TTITLE3=Avalon Blues
TTITLE4=Big Leg Blues
TTITLE5=Stack O'Lee
TTITLE6=Candy Man Blues
TTITLE7=Got The Blues (Can't Be Satisfied)
TTITLE8=Blessed Be The Name
TTITLE9=Praying On The Old Camp Ground
TTITLE10=Blue Harvest Blues
TTITLE11=Louis Collins
TTITLE12=Spike Driver Blues
EXTD=YEAR: 1928
EXTT0=
EXTT1=
EXTT2=
EXTT3=
EXTT4=
EXTT5=
EXTT6=
EXTT7=
EXTT8=
EXTT9=
EXTT10=
EXTT11=
EXTT12=
PLAYORDER=
